/* XPM */
static char * exit_xpm[] = {
"32 32 168 2",
"  	c #222A37",
". 	c #212732",
"+ 	c #476D8C",
"@ 	c #486E8D",
"# 	c #334559",
"$ 	c #486D8D",
"% 	c #34465A",
"& 	c #6B98BC",
"* 	c #6C98BC",
"= 	c #537492",
"- 	c #648AAB",
"; 	c #648CAE",
"> 	c #5B7D9B",
", 	c #6595BB",
"' 	c #6595BC",
") 	c #4A657F",
"! 	c #6291B7",
"~ 	c #5C86A8",
"{ 	c #5982A3",
"] 	c #78A1C0",
"^ 	c #8CABC6",
"/ 	c #80A5C2",
"( 	c #92AEC8",
"_ 	c #8BAAC6",
": 	c #8BABC6",
"< 	c #5A6B7E",
"[ 	c #79A1C1",
"} 	c #8CABC7",
"| 	c #4E657A",
"1 	c #668395",
"2 	c #8A98A5",
"3 	c #768D9E",
"4 	c #768C9E",
"5 	c #959EA9",
"6 	c #575F69",
"7 	c #959FAA",
"8 	c #68869A",
"9 	c #68859A",
"0 	c #949EA9",
"a 	c #8B99A6",
"b 	c #415262",
"c 	c #1F2632",
"d 	c #202937",
"e 	c #212937",
"f 	c #1F2837",
"g 	c #202732",
"h 	c #222A38",
"i 	c #28384A",
"j 	c #27374A",
"k 	c #2C3F54",
"l 	c #354E68",
"m 	c #354D67",
"n 	c #334B64",
"o 	c #2E4257",
"p 	c #2C4054",
"q 	c #37506A",
"r 	c #33485A",
"s 	c #425D73",
"t 	c #2F4254",
"u 	c #658298",
"v 	c #8BA9BE",
"w 	c #89A8BC",
"x 	c #32485D",
"y 	c #5A768B",
"z 	c #90AEC3",
"A 	c #5C788D",
"B 	c #476379",
"C 	c #31465B",
"D 	c #506A7D",
"E 	c #8EACC1",
"F 	c #6A879B",
"G 	c #2B3B48",
"H 	c #27333C",
"I 	c #344B62",
"J 	c #425C71",
"K 	c #8AA9BD",
"L 	c #718FA4",
"M 	c #2F414F",
"N 	c #2A3337",
"O 	c #2B3335",
"P 	c #334759",
"Q 	c #83A1B6",
"R 	c #7F9DB2",
"S 	c #354959",
"T 	c #283440",
"U 	c #2A3237",
"V 	c #2B3232",
"W 	c #364D63",
"X 	c #7797B2",
"Y 	c #3B5367",
"Z 	c #273340",
"` 	c #28323C",
" .	c #27333F",
"..	c #3B5366",
"+.	c #374E63",
"@.	c #54799E",
"#.	c #26333F",
"$.	c #28333D",
"%.	c #28333C",
"&.	c #26333E",
"*.	c #374C62",
"=.	c #54779C",
"-.	c #263440",
";.	c #2A3238",
">.	c #55799F",
",.	c #2A3945",
"'.	c #324555",
").	c #293238",
"!.	c #4E6E90",
"~.	c #34495C",
"{.	c #475A69",
"].	c #7795AB",
"^.	c #3A5164",
"/.	c #2D3D4A",
"(.	c #405568",
"_.	c #6A8BAA",
":.	c #86A4B9",
"<.	c #4E6270",
"[.	c #374D64",
"}.	c #6F7E7F",
"|.	c #738283",
"1.	c #394F65",
"2.	c #354D63",
"3.	c #929B8A",
"4.	c #364D64",
"5.	c #7C8881",
"6.	c #374D63",
"7.	c #59799A",
"8.	c #2B3132",
"9.	c #292D30",
"0.	c #2A2E31",
"a.	c #2C3334",
"b.	c #2C3234",
"c.	c #2A3B4E",
"d.	c #2B3033",
"e.	c #2E3538",
"f.	c #2D3336",
"g.	c #2B3131",
"h.	c #283545",
"i.	c #557A9F",
"j.	c #2E3438",
"k.	c #2F363A",
"l.	c #2A2F31",
"m.	c #283444",
"n.	c #384F68",
"o.	c #34495F",
"p.	c #4B6A89",
"q.	c #435D72",
"r.	c #2E3A41",
"s.	c #2B3233",
"t.	c #30353E",
"u.	c #4A505B",
"v.	c #414853",
"w.	c #31404B",
"x.	c #466177",
"y.	c #2A3132",
"z.	c #2E353A",
"A.	c #283032",
"B.	c #2B303A",
"C.	c #40454F",
"D.	c #40454E",
"E.	c #20282E",
"F.	c #1F262B",
"G.	c #2F3539",
"H.	c #21262F",
"I.	c #1F242E",
"J.	c #20252E",
"K.	c #2B3037",
"                .                                 .             ",
"+ + + + + + + @ # $ + + + + + + + + + + + + + + @ % + + + + + + ",
"& & & & & & * = - & & & & & & & & & & & & & & & ; > & & & & & & ",
", , , , , , ' ) ! , , , , , , , , , , , , , , , ~ { , , , , , , ",
"] ^ / / / ( _ : < ( [ [ / / ^ ] ( ( ( ( ^ ] / / } | / ( ( ( ^ ] ",
"1 2 3 3 4 5 2 2 6 7 8 8 3 3 2 9 0 0 0 0 2 9 3 3 a b 4 5 0 0 2 9 ",
"c d e e e f d d g f     e e d   f f f f d   e e d . e f f f d h ",
"i j j j j j j j j j j j j j j j j j j j j j j j j j j j j j j i ",
"k l m m m m n o o o o o o o o o o o o o o o o o o n m m m m l k ",
"p q q q q q r s s s s s s s s s s s s s s s s s s r q q q q q p ",
"p q q q q t u v w w w w w w w w w w w w w w w w v u t q q q q p ",
"p q q q x y z A B B B B B B B B B B B B B B B B A z y x q q q p ",
"p q q C D E F G H H H H H H H H H H H H H H H H G F E D C q q p ",
"p q I J K L M N O O O O O O O O O O O O O O O O N M L K J I q p ",
"p q P Q R S T U V V V V V V V V V V V V V V V V U T S R Q P q p ",
"p q W X Y Z ` V V V V V V V V V V V V V V V V V V `  ...X W q p ",
"p q +.@.#.$.V V V V V V V V V V V V V V V V V V V V %.&.@.+.q p ",
"p q *.=.-.;.V V V V V V V V V V V V V V V V V V V V ;.-.>.+.q p ",
"p q ,.'.-.).V V V V V V V V V V V V V V V V V V V V ).-.!.~.q p ",
"p q {.].-.).V V V V V V V V V V V V V V V V V V V V ).-.^./.q p ",
"p q (._.-.).V V V V V V V V V V V V V V V V V V V V ).-.:.<.q p ",
"p q [.}.-.).V V V V V V V V V V V V V V V V V V V V ).-.|.1.q p ",
"p q 2.3.-.).V V V V V V V V V V V V V V V V V V V V ).-.3.2.q p ",
"p q 4.5.-.).V V V V V V V V V V V V V V V V V V V V ).-.5.4.q p ",
"p q 6.7.-.).V V 8.9.9.9.9.9.9.9.9.9.9.9.9.9.0.V V V ).-.7.6.q p ",
"p q +.>.-.).V V 8.a.a.a.a.a.a.a.a.a.a.a.a.a.b.V V V ).-.>.+.q p ",
"c.q +.>.-.).V V d.e.e.e.e.e.e.e.e.e.e.e.e.e.f.g.V V ).-.>.+.q c.",
"h.q +.i.-.).8.j.k.k.k.k.k.k.k.k.k.k.k.k.k.k.k.k.l.V ).-.i.+.q h.",
"m.n.o.p.q.r.V a.a.a.a.a.a.a.a.a.a.a.a.a.a.a.a.a.s.V r.q.p.o.n.m.",
"t.u.u.v.w.x.y.k.k.k.k.k.k.k.k.k.k.k.k.k.k.k.k.k.z.A.x.w.v.u.u.t.",
"B.C.D.C.E.F.G.G.G.G.G.G.G.G.G.G.G.G.G.G.G.G.G.G.G.G.F.E.C.D.C.B.",
"H.I.I.I.J.J.K.K.K.K.K.K.K.K.K.K.K.K.K.K.K.K.K.K.K.K.J.J.I.I.I.H."};
