/* XPM */
static char * player_xpm[] = {
"32 32 13 1",
" 	c #111F12",
".	c #222124",
"+	c #B9A48F",
"@	c #241D0D",
"#	c #928263",
"$	c #82634B",
"%	c #A99D86",
"&	c #8A7357",
"*	c #714333",
"=	c #A38D77",
"-	c #C89E8F",
";	c #A67596",
">	c #000000",
"                                ",
"                                ",
"                                ",
"            ..    ..            ",
"           .++.  .++.           ",
"           .++.  .++.           ",
"           .++.@@.++.           ",
"          @.++.##.++.@          ",
"        @@$.+%####%+.$@@        ",
"      @@&@*$########$*@&@@      ",
"     @#&&@************@&&#@     ",
"     @###&$**********$####@     ",
"      @##################@      ",
"       @@@&##########&@@@       ",
"        .+@@@@@@@@@@@@+.        ",
"       .++++++++++++++++.       ",
"       .+++++.+++++.++++.       ",
"       .=++++.+++++.+++=.       ",
"       .=++++.+++++.+++=.       ",
"       .=+++--++;++--++=.       ",
"        .=++--+.+.+--+=>        ",
"         .++++++++++++>         ",
"           ..++++++..           ",
"          .++++++++++.          ",
"          .+=++++++=+.          ",
"         .++=++++++=++.         ",
"         .++=++++++=++.         ",
"         .++=++++++=++.         ",
"          ..++++++++..          ",
"           .+=....=+.           ",
"           .+.    .+.           ",
"           ..      ..           "};
